<?xml version="1.0" encoding="UTF-8" standalone="no"?>
<!DOCTYPE svg PUBLIC "-//W3C//DTD SVG 1.1//EN"
 "http://www.w3.org/Graphics/SVG/1.1/DTD/svg11.dtd">
<!-- Generated by graphviz version 2.47.0 (20210316.0004)
 -->
<!-- Title: dependencies Pages: 1 -->
<svg width="594pt" height="436pt"
 viewBox="0.00 0.00 594.00 436.00" xmlns="http://www.w3.org/2000/svg" xmlns:xlink="http://www.w3.org/1999/xlink">
<g id="graph0" class="graph" transform="scale(1 1) rotate(0) translate(4 432)">
<title>dependencies</title>
<polygon fill="white" stroke="transparent" points="-4,4 -4,-432 590,-432 590,4 -4,4"/>
<text text-anchor="start" x="272.01" y="-42.4" font-family="Times-12" font-weight="bold" font-size="14.00">Legend</text>
<polygon fill="#ffffb3" stroke="transparent" points="59,-10 59,-30 79,-30 79,-10 59,-10"/>
<text text-anchor="start" x="82.63" y="-15.4" font-family="Times-12" font-size="14.00"> &#160;Declarations</text>
<polygon fill="#8dd3c7" stroke="transparent" points="172,-10 172,-30 192,-30 192,-10 172,-10"/>
<text text-anchor="start" x="195.73" y="-15.4" font-family="Times-12" font-size="14.00"> &#160;Module</text>
<polygon fill="#80b1d3" stroke="transparent" points="258,-10 258,-30 278,-30 278,-10 258,-10"/>
<text text-anchor="start" x="281.78" y="-15.4" font-family="Times-12" font-size="14.00"> &#160;Bootstrap</text>
<polygon fill="#fdb462" stroke="transparent" points="355,-10 355,-30 375,-30 375,-10 355,-10"/>
<text text-anchor="start" x="378.67" y="-15.4" font-family="Times-12" font-size="14.00"> &#160;Providers</text>
<polygon fill="#fb8072" stroke="transparent" points="451,-10 451,-30 471,-30 471,-10 451,-10"/>
<text text-anchor="start" x="474.73" y="-15.4" font-family="Times-12" font-size="14.00"> &#160;Exports</text>
<g id="clust1" class="cluster">
<title>cluster_AppModule</title>
<polygon fill="none" stroke="black" stroke-dasharray="1,5" points="10,-146 10,-420 280,-420 280,-146 10,-146"/>
</g>
<g id="clust3" class="cluster">
<title>cluster_AppModule_imports</title>
<polygon fill="none" stroke="black" points="18,-154 18,-282 122,-282 122,-154 18,-154"/>
</g>
<g id="clust4" class="cluster">
<title>cluster_AppModule_exports</title>
<polygon fill="none" stroke="black" points="65,-360 65,-412 167,-412 167,-360 65,-360"/>
</g>
<g id="clust6" class="cluster">
<title>cluster_AppModule_providers</title>
<polygon fill="none" stroke="black" points="130,-230 130,-282 260,-282 260,-230 130,-230"/>
</g>
<g id="clust7" class="cluster">
<title>cluster_AuthModule</title>
<polygon fill="none" stroke="black" stroke-dasharray="1,5" points="8,-70 8,-138 138,-138 138,-70 8,-70"/>
</g>
<g id="clust9" class="cluster">
<title>cluster_AuthModule_imports</title>
<polygon fill="none" stroke="black" points="16,-78 16,-130 130,-130 130,-78 16,-78"/>
</g>
<g id="clust13" class="cluster">
<title>cluster_PrismaModule</title>
<polygon fill="none" stroke="black" stroke-dasharray="1,5" points="288,-146 288,-214 578,-214 578,-146 288,-146"/>
</g>
<g id="clust16" class="cluster">
<title>cluster_PrismaModule_exports</title>
<polygon fill="none" stroke="black" points="454,-154 454,-206 570,-206 570,-154 454,-154"/>
</g>
<g id="clust18" class="cluster">
<title>cluster_PrismaModule_providers</title>
<polygon fill="none" stroke="black" points="296,-154 296,-206 446,-206 446,-154 296,-154"/>
</g>
<g id="clust19" class="cluster">
<title>cluster_UserModule</title>
<polygon fill="none" stroke="black" stroke-dasharray="1,5" points="288,-222 288,-290 548,-290 548,-222 288,-222"/>
</g>
<g id="clust22" class="cluster">
<title>cluster_UserModule_exports</title>
<polygon fill="none" stroke="black" points="436,-230 436,-282 540,-282 540,-230 436,-230"/>
</g>
<g id="clust24" class="cluster">
<title>cluster_UserModule_providers</title>
<polygon fill="none" stroke="black" points="296,-230 296,-282 428,-282 428,-230 296,-230"/>
</g>
<!-- AuthModule -->
<g id="node1" class="node">
<title>AuthModule</title>
<polygon fill="#8dd3c7" stroke="black" points="113.55,-274 110.55,-278 89.55,-278 86.55,-274 26.45,-274 26.45,-238 113.55,-238 113.55,-274"/>
<text text-anchor="middle" x="70" y="-251.8" font-family="Times,serif" font-size="14.00">AuthModule</text>
</g>
<!-- AppModule -->
<g id="node3" class="node">
<title>AppModule</title>
<polygon fill="#8dd3c7" stroke="black" points="220.66,-339 217.66,-343 196.66,-343 193.66,-339 137.34,-339 137.34,-303 220.66,-303 220.66,-339"/>
<text text-anchor="middle" x="179" y="-316.8" font-family="Times,serif" font-size="14.00">AppModule</text>
</g>
<!-- AuthModule&#45;&gt;AppModule -->
<g id="edge1" class="edge">
<title>AuthModule&#45;&gt;AppModule</title>
<path fill="none" stroke="black" d="M100.25,-274.28C100.25,-295.32 100.25,-327 100.25,-327 100.25,-327 127.32,-327 127.32,-327"/>
<polygon fill="black" stroke="black" points="127.32,-330.5 137.32,-327 127.32,-323.5 127.32,-330.5"/>
</g>
<!-- AppService  -->
<g id="node4" class="node">
<title>AppService </title>
<polygon fill="#fb8072" stroke="black" points="158.59,-404 73.41,-404 73.41,-368 158.59,-368 158.59,-404"/>
<text text-anchor="middle" x="116" y="-381.8" font-family="Times,serif" font-size="14.00">AppService </text>
</g>
<!-- AuthModule&#45;&gt;AppService  -->
<g id="edge7" class="edge">
<title>AuthModule&#45;&gt;AppService </title>
<path fill="none" stroke="black" stroke-dasharray="5,2" d="M86.73,-274.08C86.73,-274.08 86.73,-357.66 86.73,-357.66"/>
<polygon fill="black" stroke="black" points="83.23,-357.66 86.73,-367.66 90.23,-357.66 83.23,-357.66"/>
</g>
<!-- UserModule -->
<g id="node2" class="node">
<title>UserModule</title>
<polygon fill="#8dd3c7" stroke="black" points="113.98,-198 110.98,-202 89.98,-202 86.98,-198 28.02,-198 28.02,-162 113.98,-162 113.98,-198"/>
<text text-anchor="middle" x="71" y="-175.8" font-family="Times,serif" font-size="14.00">UserModule</text>
</g>
<!-- UserModule&#45;&gt;AuthModule -->
<g id="edge6" class="edge">
<title>UserModule&#45;&gt;AuthModule</title>
<path fill="none" stroke="black" d="M56.6,-198.01C56.6,-198.01 56.6,-227.85 56.6,-227.85"/>
<polygon fill="black" stroke="black" points="53.1,-227.85 56.6,-237.85 60.1,-227.85 53.1,-227.85"/>
</g>
<!-- UserModule&#45;&gt;AppModule -->
<g id="edge2" class="edge">
<title>UserModule&#45;&gt;AppModule</title>
<path fill="none" stroke="black" d="M114.01,-186C115.72,-186 116.73,-186 116.73,-186 116.73,-186 116.73,-315 116.73,-315 116.73,-315 127.12,-315 127.12,-315"/>
<polygon fill="black" stroke="black" points="127.12,-318.5 137.12,-315 127.12,-311.5 127.12,-318.5"/>
</g>
<!-- UserService  -->
<g id="node9" class="node">
<title>UserService </title>
<polygon fill="#fb8072" stroke="black" points="531.9,-274 444.1,-274 444.1,-238 531.9,-238 531.9,-274"/>
<text text-anchor="middle" x="488" y="-251.8" font-family="Times,serif" font-size="14.00">UserService </text>
</g>
<!-- UserModule&#45;&gt;UserService  -->
<g id="edge11" class="edge">
<title>UserModule&#45;&gt;UserService </title>
<path fill="none" stroke="black" stroke-dasharray="5,2" d="M85.19,-198.11C85.19,-207.9 85.19,-218 85.19,-218 85.19,-218 452.93,-218 452.93,-218 452.93,-218 452.93,-227.89 452.93,-227.89"/>
<polygon fill="black" stroke="black" points="449.43,-227.89 452.93,-237.89 456.43,-227.89 449.43,-227.89"/>
</g>
<!-- AppModule&#45;&gt;AppService  -->
<g id="edge3" class="edge">
<title>AppModule&#45;&gt;AppService </title>
<path fill="none" stroke="black" stroke-dasharray="5,2" d="M147.98,-339.11C147.98,-339.11 147.98,-357.99 147.98,-357.99"/>
<polygon fill="black" stroke="black" points="144.48,-357.99 147.98,-367.99 151.48,-357.99 144.48,-357.99"/>
</g>
<!-- AppService -->
<g id="node5" class="node">
<title>AppService</title>
<ellipse fill="#fdb462" stroke="black" cx="195" cy="-256" rx="56.74" ry="18"/>
<text text-anchor="middle" x="195" y="-251.8" font-family="Times,serif" font-size="14.00">AppService</text>
</g>
<!-- AppService&#45;&gt;AppModule -->
<g id="edge4" class="edge">
<title>AppService&#45;&gt;AppModule</title>
<path fill="none" stroke="black" d="M179.6,-273.42C179.6,-273.42 179.6,-292.62 179.6,-292.62"/>
<polygon fill="black" stroke="black" points="176.1,-292.62 179.6,-302.62 183.1,-292.62 176.1,-292.62"/>
</g>
<!-- PrismaModule -->
<g id="node6" class="node">
<title>PrismaModule</title>
<polygon fill="#8dd3c7" stroke="black" points="122.43,-122 119.43,-126 98.43,-126 95.43,-122 23.57,-122 23.57,-86 122.43,-86 122.43,-122"/>
<text text-anchor="middle" x="73" y="-99.8" font-family="Times,serif" font-size="14.00">PrismaModule</text>
</g>
<!-- PrismaModule&#45;&gt;AuthModule -->
<g id="edge5" class="edge">
<title>PrismaModule&#45;&gt;AuthModule</title>
<path fill="none" stroke="black" d="M119.47,-122.03C119.47,-162.3 119.47,-256 119.47,-256 119.47,-256 118.91,-256 118.91,-256"/>
<polygon fill="black" stroke="black" points="123.8,-252.5 113.8,-256 123.8,-259.5 123.8,-252.5"/>
</g>
<!-- PrismaModule&#45;&gt;UserModule -->
<g id="edge10" class="edge">
<title>PrismaModule&#45;&gt;UserModule</title>
<path fill="none" stroke="black" d="M71,-122.01C71,-122.01 71,-151.85 71,-151.85"/>
<polygon fill="black" stroke="black" points="67.5,-151.85 71,-161.85 74.5,-151.85 67.5,-151.85"/>
</g>
<!-- PrismaService  -->
<g id="node7" class="node">
<title>PrismaService </title>
<polygon fill="#fb8072" stroke="black" points="562.36,-198 461.64,-198 461.64,-162 562.36,-162 562.36,-198"/>
<text text-anchor="middle" x="512" y="-175.8" font-family="Times,serif" font-size="14.00">PrismaService </text>
</g>
<!-- PrismaModule&#45;&gt;PrismaService  -->
<g id="edge8" class="edge">
<title>PrismaModule&#45;&gt;PrismaService </title>
<path fill="none" stroke="black" stroke-dasharray="5,2" d="M122.51,-98C237.32,-98 512,-98 512,-98 512,-98 512,-151.8 512,-151.8"/>
<polygon fill="black" stroke="black" points="508.5,-151.8 512,-161.8 515.5,-151.8 508.5,-151.8"/>
</g>
<!-- PrismaService -->
<g id="node8" class="node">
<title>PrismaService</title>
<ellipse fill="#fdb462" stroke="black" cx="371" cy="-180" rx="66.63" ry="18"/>
<text text-anchor="middle" x="371" y="-175.8" font-family="Times,serif" font-size="14.00">PrismaService</text>
</g>
<!-- PrismaService&#45;&gt;PrismaModule -->
<g id="edge9" class="edge">
<title>PrismaService&#45;&gt;PrismaModule</title>
<path fill="none" stroke="black" d="M371,-161.97C371,-141.23 371,-110 371,-110 371,-110 132.54,-110 132.54,-110"/>
<polygon fill="black" stroke="black" points="132.54,-106.5 122.54,-110 132.54,-113.5 132.54,-106.5"/>
</g>
<!-- UserService -->
<g id="node10" class="node">
<title>UserService</title>
<ellipse fill="#fdb462" stroke="black" cx="362" cy="-256" rx="58.44" ry="18"/>
<text text-anchor="middle" x="362" y="-251.8" font-family="Times,serif" font-size="14.00">UserService</text>
</g>
<!-- UserService&#45;&gt;UserModule -->
<g id="edge12" class="edge">
<title>UserService&#45;&gt;UserModule</title>
<path fill="none" stroke="black" d="M303.45,-256C289.07,-256 277.7,-256 277.7,-256 277.7,-256 277.7,-174 277.7,-174 277.7,-174 124.08,-174 124.08,-174"/>
<polygon fill="black" stroke="black" points="124.08,-170.5 114.08,-174 124.08,-177.5 124.08,-170.5"/>
</g>
</g>
</svg>
